<svg version="1" xmlns="http://www.w3.org/2000/svg" width="2133.333" height="2133.333" viewBox="0 0 1600.000000 1600.000000"><path d="M785.5 407.7c-7.1 4.1-14.6 8.5-16.5 9.6-7.1 4-56.6 32.5-60 34.6-1.9 1.1-6 3.4-9 5.1-13.5 7.4-37.5 21.8-37.5 22.5 0 .6 46.9 28.1 80 47 2.2 1.2 15.8 9.1 30.3 17.4l26.3 15.2 68.1-39.3c37.4-21.6 68.1-39.8 68.1-40.3 0-.8-7.8-5.7-27.3-16.7-9.3-5.3-62.8-36.3-65.4-37.9-1.7-1-3.8-2.2-4.6-2.6-.8-.4-9.5-5.3-19.2-11s-18.3-10.5-19-10.8c-.7-.2-7.1 3-14.3 7.2zM597 516.4c-17.5 10.3-31.9 18.6-36 20.9-1.9 1.1-12.3 7-23 13.2-10.7 6.2-29.5 17.1-41.7 24.2-12.2 7-22.3 13.2-22.4 13.8-.1.5 1.4 1.8 3.2 2.8 2.7 1.6 29.3 16.9 44.4 25.7 1.7 1 6.2 3.6 10.2 5.9 3.9 2.2 8.7 4.9 10.5 6 1.8 1 17.9 10.3 35.7 20.5l32.3 18.7 12.7-7.2c6.9-4 19.4-11.2 27.6-16l18.5-10.7c1.9-1.1 7.6-4.3 12.5-7.2 5-2.9 11-6.4 13.5-7.8 9.6-5.4 49.6-28.6 51.3-29.7 1.7-1.2 1.6-1.4-1-2.7-1.5-.8-8.4-4.8-15.3-8.8-6.8-4-14-8.2-16-9.3-4.5-2.5-32.3-18.5-51.5-29.7-8.2-4.8-17-9.8-19.5-11.2-2.5-1.4-10.4-6-17.7-10.2-7.2-4.2-13.7-7.8-14.5-8-.7-.3-6.9 2.8-13.8 6.8zM980 513.4c-11 6.5-121.9 70.5-126.2 72.9-2.1 1.1-3.7 2.2-3.5 2.3.2.2 34.8 20.2 42 24.3 1.7 1 8.8 5.1 15.7 9.1 6.8 4 13.9 8.1 15.7 9.1 1.8 1 11.9 6.9 22.5 13 10.6 6.2 24.4 14.1 30.5 17.6l11.3 6.4 13.7-7.9c7.6-4.4 18.3-10.5 23.8-13.7 49.7-28.7 88.9-51.4 93.4-53.9 3-1.7 5.4-3.5 5.5-4 .1-.8-22.8-14.2-101.4-59.5-11.3-6.5-22.1-12.7-24-13.8-1.9-1.1-5.1-3-7-4.1-1.9-1.2-3.7-2.2-4-2.2-.3 0-3.9 2-8 4.4zM785.5 621.7c-10.7 6.3-76.4 44.3-87 50.3-1.6 1-14.5 8.4-28.5 16.5s-27.1 15.6-29 16.7c-1.9 1.1-3.9 2.4-4.5 2.8-.7.6-.9 32.6-.8 93.2.1 105.2 0 96.8 1.2 96.8.4 0 5.3 2.6 10.7 5.9 5.5 3.2 26.6 15.4 46.9 27.1 20.4 11.7 51.4 29.6 69 39.8 17.6 10.2 32.9 18.9 34 19.4 1.7.8 4.2-.3 13-5.5 6.1-3.5 37.8-21.8 70.5-40.7 75.5-43.5 78.2-45.1 80-46.2 1.3-.9 1.5-12.4 1.5-95.1v-94.2l-9.5-5.6c-8-4.7-113.4-65.6-124-71.7-1.9-1.1-9.4-5.4-16.7-9.6-7.3-4.2-13.4-7.6-13.5-7.5-.2 0-6.1 3.4-13.3 7.6zM447 712.3c0 62.4.3 79.7 1.3 80.4.6.6 3.7 2.4 6.7 4 3 1.7 27.1 15.5 53.5 30.8s49.6 28.7 51.5 29.8c1.9 1 7.6 4.4 12.6 7.3 5 2.9 9.9 5.6 10.8 6 1.5.6 1.6-5.8 1.6-78.8v-79.5L516.8 673c-37.6-21.6-68.6-39.5-69-39.7-.5-.2-.8 35.3-.8 79zM1143 637.4c-4.1 2.4-20.5 11.8-36.5 21-15.9 9.3-42.7 24.7-59.5 34.4-16.8 9.7-31.2 18.2-32.2 18.9-1.5 1.3-1.6 8.2-1.6 80.4 0 68.9.2 79 1.4 78.5.8-.3 10.5-5.8 21.5-12.2 11.1-6.3 21.5-12.3 23.2-13.3 1.8-1 11.8-6.8 22.2-12.8 34.9-20.2 58-33.5 63.2-36.5 2.8-1.6 5.5-3.4 6-4.1.4-.7.6-36.6.3-79.9l-.5-78.7-7.5 4.3zM447.2 930.6l.3 79.7 6.4 3.8c3.4 2.2 6.5 3.9 6.7 3.9.1 0 6.7 3.8 14.6 8.4 31.1 18.1 106.8 61.7 108.3 62.2 1.3.6 1.5-7.6 1.5-78.8v-79.4l-8.7-5c-4.9-2.8-27.9-16.1-51.3-29.6s-44-25.4-45.9-26.4c-1.8-1-4.1-2.4-5-2.9-.9-.6-5.9-3.4-11.1-6.4-5.2-3-10.7-6.3-12.2-7.3-1.4-1-2.9-1.8-3.2-1.8-.3 0-.5 35.8-.4 79.6zM1140.5 856.9c-5.5 3.2-34.7 20.1-65 37.6-30.2 17.5-56.6 32.7-58.6 33.8l-3.7 2v79.4c0 73.2.2 79.4 1.7 78.8.9-.3 21-11.8 44.6-25.5 23.7-13.6 45.3-26 48-27.5 2.8-1.5 5.5-3.1 6-3.5.9-.7 6.3-3.8 26-15.2 2.8-1.6 6.5-3.6 8.3-4.5 2.8-1.5 3.2-2.2 3.3-5.7.2-17.1 0-154.8-.3-155.1-.2-.2-4.8 2.2-10.3 5.4zM635.9 960.7c0 .4-.1 36.1-.2 79.3l-.2 78.5 3.2 2.2c1.8 1.3 3.4 2.3 3.6 2.3.2 0 12.4 6.9 27 15.4s28.5 16.6 30.9 17.9c13.8 7.8 69.5 40.1 70.5 40.9.7.5 1.6.7 2.1.4.6-.3.9-32.6.9-79.4v-78.9l-29.6-17c-34.6-20-106.3-61.3-107.3-62-.5-.2-.8-.1-.9.4zM895 998.6c-36.6 21.1-67.4 39.2-68.5 40.1-2 1.8-2 2.9-2 80 .1 43 .3 78.5.6 78.8.4.3 8.9-4.2 19-10.1 46.4-26.8 108.1-62.5 114.4-66l4.1-2.3-.1-79c0-43.4-.2-79.1-.5-79.4-.3-.3-30.4 16.8-67 37.9z"/></svg>