<?xml version="1.0" encoding="UTF-8"?>
<svg width="800px" height="800px" viewBox="0 0 800 800" version="1.1" xmlns="http://www.w3.org/2000/svg" xmlns:xlink="http://www.w3.org/1999/xlink">
    <title>logo</title>
    <defs>
        <path d="M188.8624,559.99837 L326.497545,639.452289 L326.513846,798.418811 L188.849359,718.92251 L188.8624,559.99837 Z M515.314302,559.99837 L515.324083,718.919249 L377.73132,798.350347 L377.715019,639.432728 L515.314302,559.99837 Z M0.00978054893,450.981111 L137.644925,530.435031 L137.635145,689.385252 L-8.52651283e-14,609.908511 L0.00978054893,450.981111 Z M704.199523,450.96481 L704.183222,609.905251 L566.541557,689.35917 L566.531777,530.435031 L704.199523,450.96481 Z M352.099762,214.16468 L515.324083,308.41331 L515.281,308.438 L515.291481,496.904049 L352.08,591.109 L352.080201,591.123337 L188.836318,496.891008 L188.849359,308.400269 L270.47,355.515 L188.85,308.4 L352.099762,214.16468 Z M0.0260814638,232.920513 L137.661226,312.371172 L137.651446,471.295311 L0.0130407319,391.844652 L0.0260814638,232.920513 Z M704.183222,232.87487 L704.170182,391.841392 L566.528516,471.295311 L566.521996,312.367912 L704.183222,232.87487 Z M540.93282,109.04334 L678.561444,188.51356 L540.93608,267.983781 L403.307456,188.51356 L540.93282,109.04334 Z M163.256923,109.04008 L300.885547,188.51356 L163.256923,267.98052 L25.5826558,188.51356 L163.256923,109.04008 Z M352.093241,0 L489.721866,79.4702203 L352.096501,158.943701 L214.445056,79.4539194 L352.093241,0 Z" id="path-1"></path>
        <path d="M188.8624,327.077857 L326.497545,406.531777 L326.513846,565.498299 L188.849359,486.001997 L188.8624,327.077857 Z M0.00978054893,218.060599 L137.644925,297.514518 L137.635145,456.464739 L7.10542736e-15,376.987998 L0.00978054893,218.060599 Z M188.849359,75.4797563 L352.093241,169.712085 L352.080201,358.202824 L188.836318,263.970495 L188.849359,75.4797563 Z M0.0260814638,-1.42108547e-14 L137.661226,79.4506592 L137.651446,238.374799 L0.0130407319,158.92414 L0.0260814638,-1.42108547e-14 Z" id="path-3"></path>
        <linearGradient x1="30.7372176%" y1="0%" x2="70.033293%" y2="100.999999%" id="linearGradient-5">
            <stop stop-color="#F1BF7A" offset="0%"></stop>
            <stop stop-color="#D17C79" offset="47.759185%"></stop>
            <stop stop-color="#A65683" offset="100%"></stop>
        </linearGradient>
        <path d="M164.21454,327.1235 L164.224321,486.044379 L26.6315586,565.475477 L26.6152577,406.557858 L164.21454,327.1235 Z M353.099762,218.08994 L353.083461,377.030381 L215.441796,456.4843 L215.432015,297.560161 L353.099762,218.08994 Z M164.181939,75.5384396 L164.191719,264.029179 L0.980238401,358.235426 L0.990238401,169.75513 L164.181939,75.5384396 Z M353.083461,0 L353.07042,158.966522 L215.428755,238.420441 L215.422234,79.4930415 L353.083461,0 Z" id="path-6"></path>
        <linearGradient x1="30.9298452%" y1="101.499999%" x2="69.8406653%" y2="-0.499999523%" id="linearGradient-8">
            <stop stop-color="#A65683" offset="0%"></stop>
            <stop stop-color="#66A1B5" offset="52.2302576%"></stop>
            <stop stop-color="#5CB5A4" offset="100%"></stop>
        </linearGradient>
        <path d="M326.517106,214.16468 L489.741427,308.41331 L326.507325,402.63 L163.267344,308.4 L326.517106,214.16468 Z M515.350164,109.04334 L652.978788,188.51356 L515.353424,267.983781 L377.7248,188.51356 L515.350164,109.04334 Z M137.674267,109.04008 L275.302891,188.51356 L137.674267,267.98052 L1.42108547e-14,188.51356 L137.674267,109.04008 Z M326.510585,0 L464.13921,79.4702203 L326.513846,158.943701 L188.8624,79.4539194 L326.510585,0 Z" id="path-9"></path>
        <linearGradient x1="0%" y1="46.4802587%" x2="100%" y2="46.4802587%" id="linearGradient-11">
            <stop stop-color="#F1BF7A" offset="0%"></stop>
            <stop stop-color="#9BCC9A" offset="50.0079181%"></stop>
            <stop stop-color="#5CB5A4" offset="100%"></stop>
        </linearGradient>
        <path d="M188.8624,327.077857 L326.497545,406.531777 L326.513846,565.498299 L188.849359,486.001997 L188.8624,327.077857 Z M0.00978054893,218.060599 L137.644925,297.514518 L137.635145,456.464739 L7.10542736e-15,376.987998 L0.00978054893,218.060599 Z M188.849359,75.4797563 L352.093241,169.712085 L352.080201,358.202824 L188.836318,263.970495 L188.849359,75.4797563 Z M0.0260814638,-1.42108547e-14 L137.661226,79.4506592 L137.651446,238.374799 L0.0130407319,158.92414 L0.0260814638,-1.42108547e-14 Z" id="path-12"></path>
        <path d="M164.21454,327.1235 L164.224321,486.044379 L26.6315586,565.475477 L26.6152577,406.557858 L164.21454,327.1235 Z M353.099762,218.08994 L353.083461,377.030381 L215.441796,456.4843 L215.432015,297.560161 L353.099762,218.08994 Z M164.181939,75.5384396 L164.191719,264.029179 L0.980238401,358.235426 L0.990238401,169.75513 L164.181939,75.5384396 Z M353.083461,0 L353.07042,158.966522 L215.428755,238.420441 L215.422234,79.4930415 L353.083461,0 Z" id="path-14"></path>
        <path d="M326.517106,214.16468 L489.741427,308.41331 L326.507325,402.63 L163.267344,308.4 L326.517106,214.16468 Z M515.350164,109.04334 L652.978788,188.51356 L515.353424,267.983781 L377.7248,188.51356 L515.350164,109.04334 Z M137.674267,109.04008 L275.302891,188.51356 L137.674267,267.98052 L1.42108547e-14,188.51356 L137.674267,109.04008 Z M326.510585,0 L464.13921,79.4702203 L326.513846,158.943701 L188.8624,79.4539194 L326.510585,0 Z" id="path-16"></path>
    </defs>
    <g id="logo" stroke="none" stroke-width="1" fill="none" fill-rule="evenodd">
        <g id="ANTIALIAS" transform="translate(47.000000, 0.000000)">
            <mask id="mask-2" fill="white">
                <use xlink:href="#path-1"></use>
            </mask>
            <use id="Mask" fill="#333333" xlink:href="#path-1"></use>
            <g id="Gradient" mask="url(#mask-2)">
                <g id="Left" transform="translate(0.000000, 232.920513)">
                    <mask id="mask-4" fill="white">
                        <use xlink:href="#path-3"></use>
                    </mask>
                    <g id="left"></g>
                    <rect id="GRADIENT" fill="url(#linearGradient-5)" mask="url(#mask-4)" x="0" y="0.0195610979" width="352.099762" height="567.271838"></rect>
                </g>
                <g id="Right" transform="translate(351.099762, 232.874870)">
                    <mask id="mask-7" fill="white">
                        <use xlink:href="#path-6"></use>
                    </mask>
                    <g id="right"></g>
                    <rect id="GRADIENT" fill="url(#linearGradient-8)" mask="url(#mask-7)" x="1" y="0.0652036596" width="352.099762" height="567.271838"></rect>
                </g>
                <g id="Top" transform="translate(25.582656, 0.000000)">
                    <mask id="mask-10" fill="white">
                        <use xlink:href="#path-9"></use>
                    </mask>
                    <g id="top"></g>
                    <polygon id="GRADIENT" fill="url(#linearGradient-11)" mask="url(#mask-10)" points="326.259551 0 678.600566 202.131345 326.517106 404.262689 -26.0814638 201.3326"></polygon>
                </g>
            </g>
        </g>
        <g id="Mark" transform="translate(47.000000, 0.000000)">
            <g id="Left" transform="translate(0.000000, 232.920513)">
                <mask id="mask-13" fill="white">
                    <use xlink:href="#path-12"></use>
                </mask>
                <g id="left"></g>
                <rect id="GRADIENT" fill="url(#linearGradient-5)" mask="url(#mask-13)" x="0" y="0.0195610979" width="352.099762" height="567.271838"></rect>
            </g>
            <g id="Right" transform="translate(351.099762, 232.874870)">
                <mask id="mask-15" fill="white">
                    <use xlink:href="#path-14"></use>
                </mask>
                <g id="right"></g>
                <rect id="GRADIENT" fill="url(#linearGradient-8)" mask="url(#mask-15)" x="1" y="0.0652036596" width="352.099762" height="567.271838"></rect>
            </g>
            <g id="Top" transform="translate(25.582656, 0.000000)">
                <mask id="mask-17" fill="white">
                    <use xlink:href="#path-16"></use>
                </mask>
                <g id="top"></g>
                <polygon id="GRADIENT" fill="url(#linearGradient-11)" mask="url(#mask-17)" points="326.259551 0 678.600566 202.131345 326.517106 404.262689 -26.0814638 201.3326"></polygon>
            </g>
        </g>
    </g>
</svg>